<svg width="24" height="17" viewBox="0 0 24 17" fill="none" xmlns="http://www.w3.org/2000/svg">
<path d="M3 0.5C2.20435 0.5 1.44129 0.816071 0.87868 1.37868C0.31607 1.94129 0 2.70435 0 3.5V13.5C0 14.2957 0.31607 15.0587 0.87868 15.6213C1.44129 16.1839 2.20435 16.5 3 16.5H13C13.7956 16.5 14.5587 16.1839 15.1213 15.6213C15.6839 15.0587 16 14.2957 16 13.5V3.5C16 2.70435 15.6839 1.94129 15.1213 1.37868C14.5587 0.816071 13.7956 0.5 13 0.5H3ZM24 1.5C23.9998 1.30235 23.9411 1.10918 23.8312 0.94489C23.7213 0.780603 23.5652 0.652566 23.3826 0.576951C23.1999 0.501336 22.999 0.481534 22.8052 0.520046C22.6113 0.558559 22.4332 0.653658 22.2933 0.793333L18.2933 4.79333C18.1057 4.98069 18.0002 5.23487 18 5.5V11.5C18 11.7653 18.1053 12.02 18.2933 12.2067L22.2933 16.2067C22.4332 16.3463 22.6113 16.4414 22.8052 16.48C22.999 16.5185 23.1999 16.4987 23.3826 16.4231C23.5652 16.3474 23.7213 16.2194 23.8312 16.0551C23.9411 15.8908 23.9998 15.6977 24 15.5V1.5Z" fill="#E5383B"/>
</svg>
