<svg width="20" height="20" viewBox="0 0 20 20" fill="none" xmlns="http://www.w3.org/2000/svg">
<path d="M1 5.5V3.25C1 2.65326 1.23705 2.08097 1.65901 1.65901C2.08097 1.23705 2.65326 1 3.25 1H5.5M1 14.5V16.75C1 17.3467 1.23705 17.919 1.65901 18.341C2.08097 18.7629 2.65326 19 3.25 19H5.5M14.5 1H16.75C17.3467 1 17.919 1.23705 18.341 1.65901C18.7629 2.08097 19 2.65326 19 3.25V5.5M14.5 19H16.75C17.3467 19 17.919 18.7629 18.341 18.341C18.7629 17.919 19 17.3467 19 16.75V14.5" stroke="white" stroke-width="2" stroke-linecap="round" stroke-linejoin="round"/>
</svg>
