<svg width="16" height="18" viewBox="0 0 16 18" fill="none" xmlns="http://www.w3.org/2000/svg">
<path d="M4.625 0H2.375C1.77826 0 1.20597 0.237053 0.78401 0.65901C0.362053 1.08097 0.125 1.65326 0.125 2.25V15.75C0.125 16.3467 0.362053 16.919 0.78401 17.341C1.20597 17.7629 1.77826 18 2.375 18H4.625C5.22174 18 5.79403 17.7629 6.21599 17.341C6.63795 16.919 6.875 16.3467 6.875 15.75V2.25C6.875 1.65326 6.63795 1.08097 6.21599 0.65901C5.79403 0.237053 5.22174 0 4.625 0Z" fill="white"/>
<path d="M13.625 0H11.375C10.7783 0 10.206 0.237053 9.78401 0.65901C9.36205 1.08097 9.125 1.65326 9.125 2.25V15.75C9.125 16.3467 9.36205 16.919 9.78401 17.341C10.206 17.7629 10.7783 18 11.375 18H13.625C14.2217 18 14.794 17.7629 15.216 17.341C15.6379 16.919 15.875 16.3467 15.875 15.75V2.25C15.875 1.65326 15.6379 1.08097 15.216 0.65901C14.794 0.237053 14.2217 0 13.625 0Z" fill="white"/>
<path d="M4.625 0H2.375C1.77826 0 1.20597 0.237053 0.78401 0.65901C0.362053 1.08097 0.125 1.65326 0.125 2.25V15.75C0.125 16.3467 0.362053 16.919 0.78401 17.341C1.20597 17.7629 1.77826 18 2.375 18H4.625C5.22174 18 5.79403 17.7629 6.21599 17.341C6.63795 16.919 6.875 16.3467 6.875 15.75V2.25C6.875 1.65326 6.63795 1.08097 6.21599 0.65901C5.79403 0.237053 5.22174 0 4.625 0Z" stroke="white"/>
<path d="M13.625 0H11.375C10.7783 0 10.206 0.237053 9.78401 0.65901C9.36205 1.08097 9.125 1.65326 9.125 2.25V15.75C9.125 16.3467 9.36205 16.919 9.78401 17.341C10.206 17.7629 10.7783 18 11.375 18H13.625C14.2217 18 14.794 17.7629 15.216 17.341C15.6379 16.919 15.875 16.3467 15.875 15.75V2.25C15.875 1.65326 15.6379 1.08097 15.216 0.65901C14.794 0.237053 14.2217 0 13.625 0Z" stroke="white"/>
</svg>
