<svg width="16" height="18" viewBox="0 0 16 18" fill="none" xmlns="http://www.w3.org/2000/svg">
<path d="M0.5 1.00025V16.9998C0.49995 17.1777 0.547373 17.3524 0.637377 17.5059C0.727381 17.6594 0.856706 17.786 1.01201 17.8729C1.16731 17.9597 1.34297 18.0035 1.52085 17.9998C1.69874 17.9961 1.87241 17.945 2.02395 17.8517L15.0235 9.85197C15.1691 9.76251 15.2894 9.63722 15.3728 9.48807C15.4562 9.33892 15.5 9.17089 15.5 9C15.5 8.82911 15.4562 8.66108 15.3728 8.51193C15.2894 8.36278 15.1691 8.23749 15.0235 8.14803L2.02395 0.148277C1.87241 0.0550448 1.69874 0.003934 1.52085 0.000218149C1.34297 -0.0034977 1.16731 0.040316 1.01201 0.127139C0.856706 0.213961 0.727381 0.340649 0.637377 0.494129C0.547373 0.64761 0.49995 0.822326 0.5 1.00025Z" fill="white"/>
</svg>
