<svg width="18" height="20" viewBox="0 0 18 20" fill="none" xmlns="http://www.w3.org/2000/svg">
<path d="M14.6719 5.46249C15.3764 5.99081 15.9481 6.67589 16.3419 7.46347C16.7357 8.25105 16.9407 9.11949 16.9407 10C16.9407 10.8806 16.7357 11.749 16.3419 12.5366C15.9481 13.3242 15.3764 14.0092 14.6719 14.5376M4.46245 13.4032H2.19368C1.89282 13.4032 1.60429 13.2836 1.39155 13.0709C1.17881 12.8582 1.0593 12.5696 1.0593 12.2688V7.73123C1.0593 7.43037 1.17881 7.14184 1.39155 6.9291C1.60429 6.71636 1.89282 6.59684 2.19368 6.59684H4.46245L8.4328 1.49211C8.53195 1.29952 8.69671 1.14876 8.89732 1.06705C9.09793 0.985335 9.32114 0.978073 9.52664 1.04657C9.73213 1.11507 9.90634 1.25481 10.0178 1.44054C10.1293 1.62627 10.1706 1.84574 10.1344 2.0593V17.9407C10.1706 18.1543 10.1293 18.3737 10.0178 18.5595C9.90634 18.7452 9.73213 18.8849 9.52664 18.9534C9.32114 19.0219 9.09793 19.0147 8.89732 18.933C8.69671 18.8512 8.53195 18.7005 8.4328 18.5079L4.46245 13.4032Z" stroke="white" stroke-width="2" stroke-linecap="round" stroke-linejoin="round"/>
</svg>
