<svg width="24" height="20" viewBox="0 0 24 20" fill="none" xmlns="http://www.w3.org/2000/svg">
<path d="M15.3787 5.46249C16.0831 5.99081 16.6549 6.67589 17.0487 7.46347C17.4425 8.25105 17.6475 9.11949 17.6475 10C17.6475 10.8806 17.4425 11.749 17.0487 12.5366C16.6549 13.3242 16.0831 14.0092 15.3787 14.5376M18.4415 2.05933C19.6258 3.01636 20.581 4.22615 21.2371 5.60011C21.8933 6.97408 22.2339 8.47741 22.2339 10C22.2339 11.5226 21.8933 13.026 21.2371 14.3999C20.581 15.7739 19.6258 16.9837 18.4415 17.9407M5.16924 13.4032H2.90047C2.59961 13.4032 2.31108 13.2836 2.09834 13.0709C1.8856 12.8582 1.76608 12.5696 1.76608 12.2688V7.73123C1.76608 7.43037 1.8856 7.14184 2.09834 6.9291C2.31108 6.71636 2.59961 6.59684 2.90047 6.59684H5.16924L9.13959 1.49211C9.23874 1.29952 9.4035 1.14876 9.60411 1.06705C9.80471 0.985335 10.0279 0.978073 10.2334 1.04657C10.4389 1.11507 10.6131 1.25481 10.7246 1.44054C10.836 1.62627 10.8774 1.84574 10.8412 2.0593V17.9407C10.8774 18.1543 10.836 18.3737 10.7246 18.5595C10.6131 18.7452 10.4389 18.8849 10.2334 18.9534C10.0279 19.0219 9.80471 19.0147 9.60411 18.933C9.4035 18.8512 9.23874 18.7005 9.13959 18.5079L5.16924 13.4032Z" stroke="white" stroke-width="2" stroke-linecap="round" stroke-linejoin="round"/>
</svg>
