<svg width="22" height="20" viewBox="0 0 22 20" fill="none" xmlns="http://www.w3.org/2000/svg">
<path d="M13.9785 6C14.7268 6.56124 15.3027 7.32114 15.6407 8.19334C15.9787 9.06554 16.0652 10.0151 15.8905 10.934M14.5135 13.536C14.3464 13.7031 14.1676 13.8582 13.9785 14M16.6785 3C18.2834 4.29704 19.3939 6.10621 19.8239 8.12445C20.2539 10.1427 19.9773 12.2474 19.0405 14.086M17.3645 16.385C17.1464 16.6016 16.9175 16.8068 16.6785 17M8.04752 3.05397L8.47852 2.49997C8.56592 2.3302 8.71116 2.1973 8.88801 2.12527C9.06485 2.05323 9.26162 2.04683 9.44277 2.10722C9.62392 2.1676 9.77749 2.29078 9.87575 2.45451C9.974 2.61824 10.0105 2.81171 9.97852 2.99997V4.99997M9.97852 8.99997V17C10.0105 17.1882 9.974 17.3817 9.87575 17.5454C9.77749 17.7092 9.62392 17.8323 9.44277 17.8927C9.26162 17.9531 9.06485 17.9467 8.88801 17.8747C8.71116 17.8026 8.56592 17.6697 8.47852 17.5L4.97852 13H2.97852C2.7133 13 2.45895 12.8946 2.27141 12.7071C2.08387 12.5195 1.97852 12.2652 1.97852 12V7.99997C1.97852 7.73476 2.08387 7.4804 2.27141 7.29287C2.45895 7.10533 2.7133 6.99997 2.97852 6.99997H4.97852L6.27252 5.33597M1.97852 1L19.9785 19" stroke="white" stroke-width="2" stroke-linecap="round" stroke-linejoin="round"/>
</svg>
