<svg width="24" height="24" viewBox="0 0 24 24" fill="none" xmlns="http://www.w3.org/2000/svg">
<path d="M16.8 6.59998C16.8 5.80433 16.4839 5.04126 15.9213 4.47866C15.3587 3.91605 14.5956 3.59998 13.8 3.59998H6.59995C5.8043 3.59998 5.04124 3.91605 4.47863 4.47866C3.91602 5.04126 3.59995 5.80433 3.59995 6.59998V10.32C4.74415 9.73546 6.03408 9.49764 7.3115 9.63567C8.58892 9.7737 9.79827 10.2816 10.7912 11.097C11.7841 11.9125 12.5174 13 12.9012 14.2262C13.285 15.4524 13.3025 16.764 12.9516 18H13.8C14.5956 18 15.3587 17.6839 15.9213 17.1213C16.4839 16.5587 16.8 15.7956 16.8 15V6.59998ZM18 8.31598V13.2984L21.3168 16.1184C21.4477 16.2298 21.6078 16.3014 21.7781 16.3246C21.9485 16.3479 22.1219 16.3219 22.2779 16.2497C22.434 16.1775 22.566 16.0621 22.6586 15.9172C22.7511 15.7723 22.8001 15.6039 22.8 15.432V6.23158C22.7997 6.06066 22.7507 5.89337 22.6588 5.74926C22.5669 5.60515 22.4359 5.49018 22.2811 5.4178C22.1263 5.34542 21.954 5.31863 21.7845 5.34054C21.615 5.36246 21.4553 5.43219 21.324 5.54158L18 8.31598ZM12 16.2C12 17.6321 11.431 19.0057 10.4183 20.0184C9.40563 21.031 8.03212 21.6 6.59995 21.6C5.16778 21.6 3.79427 21.031 2.78157 20.0184C1.76888 19.0057 1.19995 17.6321 1.19995 16.2C1.19995 14.7678 1.76888 13.3943 2.78157 12.3816C3.79427 11.3689 5.16778 10.8 6.59995 10.8C8.03212 10.8 9.40563 11.3689 10.4183 12.3816C11.431 13.3943 12 14.7678 12 16.2ZM7.19995 13.8C7.19995 13.6408 7.13674 13.4882 7.02422 13.3757C6.91169 13.2632 6.75908 13.2 6.59995 13.2C6.44082 13.2 6.28821 13.2632 6.17569 13.3757C6.06317 13.4882 5.99995 13.6408 5.99995 13.8V15.6H4.19995C4.04082 15.6 3.88821 15.6632 3.77569 15.7757C3.66317 15.8882 3.59995 16.0408 3.59995 16.2C3.59995 16.3591 3.66317 16.5117 3.77569 16.6242C3.88821 16.7368 4.04082 16.8 4.19995 16.8H5.99995V18.6C5.99995 18.7591 6.06317 18.9117 6.17569 19.0242C6.28821 19.1368 6.44082 19.2 6.59995 19.2C6.75908 19.2 6.91169 19.1368 7.02422 19.0242C7.13674 18.9117 7.19995 18.7591 7.19995 18.6V16.8H8.99995C9.15908 16.8 9.31169 16.7368 9.42422 16.6242C9.53674 16.5117 9.59995 16.3591 9.59995 16.2C9.59995 16.0408 9.53674 15.8882 9.42422 15.7757C9.31169 15.6632 9.15908 15.6 8.99995 15.6H7.19995V13.8Z" fill="white"/>
</svg>
