<svg width="19" height="20" viewBox="0 0 19 20" fill="none" xmlns="http://www.w3.org/2000/svg">
<path d="M9.51197 0.25C10.246 0.258 10.977 0.343 11.694 0.503C11.8465 0.53705 11.9846 0.617903 12.0889 0.734261C12.1933 0.850618 12.2587 0.996668 12.276 1.152L12.446 2.679C12.47 2.89428 12.5442 3.10093 12.6626 3.28231C12.781 3.46368 12.9404 3.61473 13.1278 3.72329C13.3153 3.83185 13.5256 3.89489 13.7419 3.90735C13.9581 3.9198 14.1743 3.88132 14.373 3.795L15.773 3.18C15.9152 3.11735 16.0734 3.10044 16.2257 3.13161C16.378 3.16278 16.5168 3.24049 16.623 3.354C17.6352 4.43501 18.3892 5.73153 18.828 7.146C18.8738 7.29474 18.8723 7.45406 18.8236 7.60189C18.7748 7.74971 18.6813 7.87871 18.556 7.971L17.315 8.887C17.1401 9.01517 16.9979 9.18273 16.8999 9.3761C16.8019 9.56947 16.7508 9.78321 16.7508 10C16.7508 10.2168 16.8019 10.4305 16.8999 10.6239C16.9979 10.8173 17.1401 10.9848 17.315 11.113L18.558 12.028C18.6835 12.1204 18.7772 12.2495 18.8259 12.3976C18.8747 12.5456 18.8761 12.7051 18.83 12.854C18.3913 14.2683 17.6377 15.5648 16.626 16.646C16.52 16.7595 16.3814 16.8372 16.2293 16.8686C16.0772 16.8999 15.9192 16.8833 15.777 16.821L14.371 16.204C14.1726 16.117 13.9565 16.0779 13.7402 16.09C13.5238 16.102 13.3134 16.1648 13.1259 16.2733C12.9383 16.3817 12.779 16.5328 12.6607 16.7143C12.5424 16.8958 12.4685 17.1026 12.445 17.318L12.275 18.844C12.258 18.9975 12.194 19.142 12.0918 19.2578C11.9896 19.3736 11.8542 19.4551 11.704 19.491C10.2555 19.8356 8.74642 19.8356 7.29797 19.491C7.14757 19.4553 7.0119 19.3739 6.9095 19.2581C6.80711 19.1423 6.74301 18.9976 6.72597 18.844L6.55697 17.32C6.53242 17.1053 6.45787 16.8994 6.33931 16.7187C6.22074 16.5381 6.06146 16.3877 5.87426 16.2798C5.68707 16.1718 5.47716 16.1093 5.26141 16.0972C5.04566 16.0851 4.83008 16.1237 4.63197 16.21L3.22597 16.826C3.08363 16.8885 2.92537 16.9053 2.77309 16.8739C2.62081 16.8426 2.48204 16.7647 2.37597 16.651C1.36404 15.5685 0.610813 14.2706 0.172971 12.855C0.126868 12.7061 0.128288 12.5466 0.177034 12.3986C0.22578 12.2505 0.319431 12.1214 0.444971 12.029L1.68797 11.113C1.86282 10.9848 2.00501 10.8173 2.10302 10.6239C2.20103 10.4305 2.25211 10.2168 2.25211 10C2.25211 9.78321 2.20103 9.56947 2.10302 9.3761C2.00501 9.18273 1.86282 9.01517 1.68797 8.887L0.444971 7.973C0.319431 7.88065 0.22578 7.75148 0.177034 7.60345C0.128288 7.45542 0.126868 7.29588 0.172971 7.147C0.611789 5.73253 1.3657 4.43601 2.37797 3.355C2.48416 3.24149 2.62298 3.16378 2.77526 3.13261C2.92753 3.10144 3.08573 3.11835 3.22797 3.181L4.62797 3.796C4.82699 3.88227 5.04347 3.92066 5.26002 3.90809C5.47657 3.89551 5.68715 3.83232 5.87484 3.7236C6.06254 3.61487 6.22212 3.46363 6.34076 3.28204C6.4594 3.10045 6.5338 2.89356 6.55797 2.678L6.72797 1.152C6.74513 0.996355 6.81058 0.849984 6.91513 0.733414C7.01968 0.616845 7.1581 0.535924 7.31097 0.502C8.03397 0.342213 8.77157 0.257762 9.51197 0.25ZM9.49997 7C8.70432 7 7.94126 7.31607 7.37865 7.87868C6.81604 8.44129 6.49997 9.20435 6.49997 10C6.49997 10.7956 6.81604 11.5587 7.37865 12.1213C7.94126 12.6839 8.70432 13 9.49997 13C10.2956 13 11.0587 12.6839 11.6213 12.1213C12.1839 11.5587 12.5 10.7956 12.5 10C12.5 9.20435 12.1839 8.44129 11.6213 7.87868C11.0587 7.31607 10.2956 7 9.49997 7Z" fill="white"/>
</svg>
