<svg width="20" height="24" viewBox="0 0 20 24" fill="none" xmlns="http://www.w3.org/2000/svg">
<path d="M3.2 6.4C3.2 4.70261 3.87428 3.07475 5.07452 1.87452C6.27475 0.674284 7.90261 0 9.6 0C11.2974 0 12.9253 0.674284 14.1255 1.87452C15.3257 3.07475 16 4.70261 16 6.4V9.6H16.4C17.9456 9.6 19.2 10.8544 19.2 12.4V21.2C19.2 21.9426 18.905 22.6548 18.3799 23.1799C17.8548 23.705 17.1426 24 16.4 24H2.8C2.05739 24 1.3452 23.705 0.820101 23.1799C0.294999 22.6548 0 21.9426 0 21.2V12.4C0 10.8544 1.2544 9.6 2.8 9.6H3.2V6.4ZM13.6 9.6V6.4C13.6 5.33913 13.1786 4.32172 12.4284 3.57157C11.6783 2.82143 10.6609 2.4 9.6 2.4C8.53913 2.4 7.52172 2.82143 6.77157 3.57157C6.02143 4.32172 5.6 5.33913 5.6 6.4V9.6H13.6Z" fill="#D3D3D3"/>
</svg>
