<svg width="21" height="20" viewBox="0 0 21 20" fill="none" xmlns="http://www.w3.org/2000/svg">
<path d="M15.2 1.33989C16.7083 2.21075 17.963 3.46042 18.8398 4.96519C19.7167 6.46997 20.1854 8.17766 20.1994 9.91923C20.2135 11.6608 19.7725 13.3758 18.92 14.8946C18.0676 16.4133 16.8333 17.6831 15.3393 18.5782C13.8453 19.4733 12.1434 19.9627 10.4021 19.998C8.66084 20.0332 6.94056 19.6131 5.41157 18.7791C3.88257 17.9452 2.59788 16.7264 1.68468 15.2434C0.771474 13.7604 0.261422 12.0646 0.205012 10.3239L0.200012 9.99989L0.205012 9.67589C0.261015 7.94888 0.76356 6.26585 1.66365 4.79089C2.56374 3.31592 3.83067 2.09934 5.3409 1.25977C6.85114 0.420205 8.55316 -0.0137108 10.281 0.000330246C12.0089 0.0143713 13.7036 0.47589 15.2 1.33989ZM10.2 3.99989C9.95508 3.99992 9.71867 4.08985 9.53564 4.25261C9.3526 4.41537 9.23567 4.63964 9.20701 4.88289L9.20001 4.99989V9.99989L9.20901 10.1309C9.23181 10.3044 9.29974 10.4689 9.40601 10.6079L9.49301 10.7079L12.493 13.7079L12.587 13.7899C12.7624 13.926 12.978 13.9998 13.2 13.9998C13.422 13.9998 13.6376 13.926 13.813 13.7899L13.907 13.7069L13.99 13.6129C14.1261 13.4375 14.1999 13.2219 14.1999 12.9999C14.1999 12.7779 14.1261 12.5623 13.99 12.3869L13.907 12.2929L11.2 9.58489V4.99989L11.193 4.88289C11.1644 4.63964 11.0474 4.41537 10.8644 4.25261C10.6813 4.08985 10.4449 3.99992 10.2 3.99989Z" fill="white"/>
</svg>
