<svg width="20" height="24" viewBox="0 0 20 24" fill="none" xmlns="http://www.w3.org/2000/svg">
<path d="M3.40001 6.4C3.40001 4.70261 4.0743 3.07475 5.27453 1.87452C6.47476 0.674284 8.10263 0 9.80001 0C11.4974 0 13.1253 0.674284 14.3255 1.87452C15.5257 3.07475 16.2 4.70261 16.2 6.4V9.6H16.6C18.1456 9.6 19.4 10.8544 19.4 12.4V21.2C19.4 21.9426 19.105 22.6548 18.5799 23.1799C18.0548 23.705 17.3426 24 16.6 24H3.00001C2.25741 24 1.54522 23.705 1.02011 23.1799C0.495012 22.6548 0.200012 21.9426 0.200012 21.2V12.4C0.200012 10.8544 1.45441 9.6 3.00001 9.6H3.40001V6.4ZM13.8 9.6H16.2V6.4H13.8C13.8 5.33913 13.3786 4.32172 12.6284 3.57157C11.8783 2.82143 10.8609 2.4 9.80001 2.4C8.73915 2.4 7.72173 2.82143 6.97159 3.57157C6.22144 4.32172 5.80001 5.33913 5.80001 6.4V9.6H13.8Z" fill="#D3D3D3"/>
</svg>
